<?xml version="1.0" encoding="utf-8"?>
<!-- Generator: Adobe Illustrator 20.0.0, SVG Export Plug-In . SVG Version: 6.00 Build 0)  -->
<svg version="1.1" id="Ebene_1" xmlns="http://www.w3.org/2000/svg" xmlns:xlink="http://www.w3.org/1999/xlink" x="0px" y="0px"
	 viewBox="0 0 143.6 35.3" style="enable-background:new 0 0 143.6 35.3;" xml:space="preserve">
<style type="text/css">
	.st0{fill:#FFFFFF;}
	.st1{fill:#7B170F;}
	.st2{fill:#E25A67;}
	.st3{fill:none;}
	.st4{enable-background:new    ;}
</style>
<path id="favorite-2_3_" class="st0" d="M56,7.9L58,5c-3.7-8-19.2-6.7-19.2,6.2c0,6.5,4.9,15.2,19.2,24c1.7-1,3.3-2.1,4.7-3.1
	c0.5-0.3,1-0.7,1.4-1.1l-2-2.5c-0.6,0.5-1.3,1-2,1.4c-0.7,0.5-1.4,1-2.1,1.4c-10.2-6.5-16-13.8-16-20.1c0-5.6,3.8-8,7.3-8
	c3.1,0,5.1,2,6.5,4.1L56,7.9z"/>
<g>
	<path class="st1" d="M60.2,2.3c-1,0.9-2.3,2.6-4.2,5.6c0,0,0.7,0.2,3.3,0.8c0,0,4.1-6,9.8-4.1C66.5,0.3,61.5,1.9,60.2,2.3z"/>
	<path class="st2" d="M74.9,3.8c-2-2.4-5.3-3.9-9-3.8c-3.8,0.1-5.7,2.2-5.7,2.2l0,0c1.2-0.3,6.2-1.8,8.8,2.4
		c0.5,0.7,0.9,1.7,1.2,2.9c1.9,8.4-10.7,23-10.7,23l2.9,1.9C71.9,26.4,83.5,14.2,74.9,3.8z"/>
</g>
<g>
	<path class="st0" d="M1.6,34.6C1.5,34.9,1.2,35,1,34.7c-0.6-0.8-0.9-2-0.2-4.4c1-3.4,7.8-16.9,10.3-20.3c0.4-0.5,0.6-0.4,1,0.1
		c0.5,0.9,0.7,2.8-0.9,5.8c-1,1.9-2.4,4.2-3.8,6.9c5.2-3.9,10.8-8.9,14.6-13c0.3-0.3,0.6-0.3,0.8,0.1c0.2,0.9,0.2,2.2-1.2,4.2
		c-1.8,2.4-7.2,7.3-12.6,11.1c1.3,2,2.4,3.9,2.8,5c1,2.3,0.6,3.7,0,4.4c-0.2,0.3-0.5,0.3-0.7-0.1c-1.5-2.9-3.3-5.8-5.2-8.6
		C4.3,28.5,2.9,31.5,1.6,34.6z"/>
	<path class="st0" d="M15.9,29c1-2.9,3.6-7.6,5.1-9.7c0.4-0.5,0.6-0.6,1-0.2c0.6,0.6,0.9,2.4,0,4.3c-0.8,1.8-2.5,4.5-3.4,6.5
		c-1,2.3-0.9,3.9,0.4,3.8c1.8-0.1,4-2.7,5.2-5.5c0.2-0.4,0.5-0.3,0.6,0c0.3,0.6,0.2,1.5-0.3,2.5c-1.2,2.5-3.7,4.1-5.9,4.1
		C15.5,34.8,14.7,32.2,15.9,29z M24.7,18.6c-0.5,0.6-1.6,0.4-2.2-0.6c-0.6-1.1-0.4-2.3,0.2-2.9c0.6-0.7,1.8-0.2,2.3,0.9
		C25.5,16.9,25.3,18,24.7,18.6z"/>
	<path class="st0" d="M26.2,17.7c-0.4-0.6-0.2-0.8,0.4-0.8c1.1,0,2.2,0,3.3-0.2c1.2-2.2,2.4-4.1,3-4.9c0.4-0.5,0.8-0.5,1,0
		c0.4,1.1,0.4,2.4-0.5,4.5c1.6,0,2.1,0.7,2.5,1.2c0.3,0.5,0.1,0.8-0.5,0.8c-0.9-0.1-2.1,0-3.1,0.2c-1.6,2.7-3.8,6.5-5.3,9.9
		c-1.3,2.9-0.9,5.4,0.8,5.5c1.8,0.1,4.1-2.7,5.5-5.7c0.2-0.5,0.7-0.6,0.8,0c0.2,0.6,0,1.4-0.4,2.3c-0.5,1.2-3.1,4.7-6.3,4.5
		c-2.6-0.1-4.7-3-2.8-7.6c0.8-2,2.5-5.3,4.2-8.5C27.4,18.7,26.5,18.1,26.2,17.7z"/>
	<path class="st0" d="M37,33.7c3.3,0.2,6.2-3,7.9-5.7c0.2-0.3,0.5-0.3,0.7,0s0,1.4-0.7,2.5c-1.7,2.4-4.7,4.3-7.8,4.3
		c-5.1,0.1-6.8-4.9-4.2-10s6.7-7.2,8.6-6.1c1,0.6,1.7,1.2,2.4,2.1c0.7,1,0.4,3.4-1.3,5.4c-2,2.4-4.6,3.4-7.4,1.2
		C33.9,31,34.9,33.6,37,33.7z M40.3,24.5c1.3-1.7,2.1-3.7,1.6-4.2c-0.8-0.7-4.1,1.7-6,5.5c-0.1,0.2-0.2,0.5-0.3,0.7
		C37.5,27.7,39.1,26,40.3,24.5z"/>
</g>
<rect x="66.3" y="24.7" class="st3" width="81.1" height="28.6"/>
<g class="st4">
	<path class="st0" d="M67.9,33.7V26h-1.3v-1.3h7.9v3.1h-1.3V26h-3.8v3h3.3v1.3h-3.3v3.3h1.3v1.3h-4.1v-1.3H67.9z"/>
	<path class="st0" d="M82.9,33.7v1.2h-2.6v-0.8c-0.8,0.6-1.6,0.9-2.3,0.9c-0.5,0-0.9-0.1-1.2-0.3c-0.3-0.2-0.5-0.5-0.6-0.8
		c-0.1-0.3-0.2-0.9-0.2-1.6v-3.3h-1v-1.2h2.4v4.3c0,0.5,0,0.9,0,1.1s0.1,0.3,0.3,0.4s0.3,0.2,0.5,0.2c0.6,0,1.3-0.3,2.1-0.9v-3.8H79
		v-1.2h2.6v5.9H82.9z"/>
	<path class="st0" d="M86.1,27.8v0.9c0.9-0.6,1.7-1,2.4-1c0.5,0,0.8,0.1,1.1,0.3c0.3,0.2,0.5,0.5,0.6,0.8c0.1,0.3,0.1,0.8,0.1,1.4
		v3.5h1.2v1.2H89v-4.6c0-0.5-0.1-0.9-0.2-1.1c-0.2-0.2-0.4-0.2-0.6-0.2c-0.6,0-1.3,0.3-2.1,0.9v3.8h1.2v1.2h-3.9v-1.2h1.2v-4.6h-1.2
		v-1.2H86.1z"/>
	<path class="st0" d="M101,33.7v1.2h-2.7v-1c-0.7,0.8-1.5,1.2-2.5,1.2c-0.9,0-1.7-0.3-2.4-0.9c-0.7-0.6-1-1.5-1-2.7
		c0-1.2,0.4-2.1,1.1-2.8s1.5-1,2.4-1c1,0,1.8,0.4,2.5,1.1V26H97v-1.2h2.8v8.9H101z M93.8,31.4c0,0.8,0.2,1.4,0.7,1.8
		c0.4,0.4,1,0.6,1.6,0.6c0.6,0,1.1-0.2,1.6-0.7c0.5-0.4,0.7-1.1,0.7-1.8c0-0.8-0.2-1.4-0.7-1.8c-0.5-0.4-1-0.6-1.6-0.6
		c-0.6,0-1.2,0.2-1.6,0.7C94,30.1,93.8,30.7,93.8,31.4z"/>
	<path class="st0" d="M101.4,34.9v-1.2h1.3V26h-1.3v-1.2h2.6v4.1c0.7-0.8,1.6-1.2,2.6-1.2c1,0,1.8,0.3,2.5,1c0.7,0.7,1,1.6,1,2.7
		c0,1.1-0.3,1.9-1,2.7c-0.6,0.7-1.5,1.1-2.5,1.1c-0.6,0-1.1-0.1-1.6-0.4s-0.8-0.5-1-0.8v1.1H101.4z M104.1,31.4
		c0,0.7,0.2,1.3,0.7,1.8c0.5,0.4,1,0.6,1.6,0.6c0.6,0,1.2-0.2,1.6-0.7s0.7-1.1,0.7-1.8c0-0.7-0.2-1.3-0.7-1.7
		c-0.4-0.4-1-0.6-1.6-0.6c-0.6,0-1.1,0.2-1.6,0.6C104.3,30,104.1,30.6,104.1,31.4z"/>
	<path class="st0" d="M118.9,33.7v1.2h-2.6v-0.8c-0.8,0.6-1.6,0.9-2.3,0.9c-0.5,0-0.9-0.1-1.2-0.3c-0.3-0.2-0.5-0.5-0.6-0.8
		c-0.1-0.3-0.2-0.9-0.2-1.6v-3.3h-1v-1.2h2.4v4.3c0,0.5,0,0.9,0,1.1s0.1,0.3,0.3,0.4s0.3,0.2,0.5,0.2c0.6,0,1.3-0.3,2.1-0.9v-3.8
		H115v-1.2h2.6v5.9H118.9z"/>
	<path class="st0" d="M127.1,31.7h-6c0.1,0.7,0.3,1.2,0.8,1.6s1,0.6,1.6,0.6c1,0,1.7-0.4,2.3-1.2l1.2,0.5c-0.4,0.6-0.9,1.1-1.6,1.4
		c-0.6,0.3-1.3,0.5-2,0.5c-1.1,0-2-0.3-2.8-1c-0.8-0.7-1.2-1.6-1.2-2.7c0-1.1,0.4-2,1.1-2.7c0.7-0.7,1.6-1.1,2.6-1.1
		c1,0,1.8,0.3,2.6,1C126.6,29.4,127,30.4,127.1,31.7z M125.6,30.7c-0.1-0.5-0.4-0.9-0.8-1.4c-0.4-0.4-0.9-0.6-1.5-0.6
		c-0.6,0-1,0.2-1.4,0.5c-0.4,0.4-0.6,0.8-0.7,1.4H125.6z"/>
	<path class="st0" d="M129.4,33.7v-4.6h-1.4v-1.2h2.5v1.6c0.2-0.4,0.4-0.8,0.7-1s0.6-0.5,0.9-0.5c0.3-0.1,0.7-0.1,1.3-0.1h0.4v1.4
		h-0.3c-0.7,0-1.2,0.1-1.6,0.2c-0.3,0.1-0.6,0.4-0.8,0.8c-0.2,0.4-0.3,1-0.3,2v1.6h1.5v1.2h-4.4v-1.2H129.4z"/>
	<path class="st0" d="M133.8,31.4c0-1.1,0.4-2,1.1-2.7c0.7-0.7,1.6-1.1,2.6-1.1c1,0,1.9,0.3,2.6,1c0.7,0.7,1.1,1.6,1.1,2.7
		s-0.4,2-1.1,2.7c-0.7,0.7-1.6,1-2.6,1c-1.1,0-1.9-0.4-2.7-1.1C134.2,33.4,133.8,32.5,133.8,31.4z M135.3,31.4
		c0,0.7,0.2,1.3,0.7,1.7c0.4,0.4,1,0.7,1.6,0.7c0.6,0,1.2-0.2,1.6-0.7c0.4-0.5,0.6-1,0.6-1.7c0-0.7-0.2-1.3-0.7-1.7
		c-0.4-0.4-1-0.7-1.6-0.7c-0.7,0-1.2,0.2-1.6,0.7C135.5,30.1,135.3,30.7,135.3,31.4z"/>
</g>
<g class="st4">
	<path class="st0" d="M141.2,26.2l0.2-0.5c0.4,0.1,0.6,0.2,0.8,0.3c0-0.4-0.1-0.7-0.1-0.9h0.5c0,0.2,0,0.5-0.1,0.8
		c0.2-0.1,0.5-0.2,0.8-0.3l0.2,0.5c-0.3,0.1-0.6,0.2-0.9,0.2c0.1,0.1,0.3,0.3,0.6,0.6l-0.4,0.3c-0.1-0.2-0.3-0.4-0.5-0.7
		c-0.2,0.3-0.3,0.6-0.4,0.7l-0.4-0.3c0.3-0.3,0.5-0.5,0.6-0.6C141.8,26.4,141.5,26.3,141.2,26.2z"/>
</g>
</svg>
