<?xml version="1.0" encoding="utf-8"?>
<!-- Generator: Adobe Illustrator 20.0.0, SVG Export Plug-In . SVG Version: 6.00 Build 0)  -->
<svg version="1.1" id="Ebene_1" xmlns="http://www.w3.org/2000/svg" xmlns:xlink="http://www.w3.org/1999/xlink" x="0px" y="0px"
	 viewBox="0 0 143.6 35.3" style="enable-background:new 0 0 143.6 35.3;" xml:space="preserve">
<style type="text/css">
	.st0{fill:#FFFFFF;}
	.st1{fill:#7B170F;}
	.st2{fill:#E25A67;}
	.st3{fill:none;}
</style>
<path id="favorite-2_3_" class="st0" d="M56,7.9L58,5c-3.7-8-19.2-6.7-19.2,6.2c0,6.5,4.9,15.2,19.2,24c1.7-1,3.3-2.1,4.7-3.1
	c0.5-0.3,1-0.7,1.4-1.1l-2-2.5c-0.6,0.5-1.3,1-2,1.4c-0.7,0.5-1.4,1-2.1,1.4c-10.2-6.5-16-13.8-16-20.1c0-5.6,3.8-8,7.3-8
	c3.1,0,5.1,2,6.5,4.1L56,7.9z"/>
<g>
	<path class="st1" d="M60.2,2.3c-1,0.9-2.3,2.6-4.2,5.6c0,0,0.7,0.2,3.3,0.8c0,0,4.1-6,9.8-4.1C66.5,0.3,61.5,1.9,60.2,2.3z"/>
	<path class="st2" d="M74.9,3.8c-2-2.4-5.3-3.9-9-3.8c-3.8,0.1-5.7,2.2-5.7,2.2l0,0c1.2-0.3,6.2-1.8,8.8,2.4
		c0.5,0.7,0.9,1.7,1.2,2.9c1.9,8.4-10.7,23-10.7,23l2.9,1.9C71.9,26.4,83.5,14.2,74.9,3.8z"/>
</g>
<g>
	<path class="st0" d="M1.6,34.6C1.5,34.9,1.2,35,1,34.7c-0.6-0.8-0.9-2-0.2-4.4c1-3.4,7.8-16.9,10.3-20.3c0.4-0.5,0.6-0.4,1,0.1
		c0.5,0.9,0.7,2.8-0.9,5.8c-1,1.9-2.4,4.2-3.8,6.9c5.2-3.9,10.8-8.9,14.6-13c0.3-0.3,0.6-0.3,0.8,0.1c0.2,0.9,0.2,2.2-1.2,4.2
		c-1.8,2.4-7.2,7.3-12.6,11.1c1.3,2,2.4,3.9,2.8,5c1,2.3,0.6,3.7,0,4.4c-0.2,0.3-0.5,0.3-0.7-0.1c-1.5-2.9-3.3-5.8-5.2-8.6
		C4.3,28.5,2.9,31.5,1.6,34.6z"/>
	<path class="st0" d="M15.9,29c1-2.9,3.6-7.6,5.1-9.7c0.4-0.5,0.6-0.6,1-0.2c0.6,0.6,0.9,2.4,0,4.3c-0.8,1.8-2.5,4.5-3.4,6.5
		c-1,2.3-0.9,3.9,0.4,3.8c1.8-0.1,4-2.7,5.2-5.5c0.2-0.4,0.5-0.3,0.6,0c0.3,0.6,0.2,1.5-0.3,2.5c-1.2,2.5-3.7,4.1-5.9,4.1
		C15.5,34.8,14.7,32.2,15.9,29z M24.7,18.6c-0.5,0.6-1.6,0.4-2.2-0.6c-0.6-1.1-0.4-2.3,0.2-2.9c0.6-0.7,1.8-0.2,2.3,0.9
		C25.5,16.9,25.3,18,24.7,18.6z"/>
	<path class="st0" d="M26.2,17.7c-0.4-0.6-0.2-0.8,0.4-0.8c1.1,0,2.2,0,3.3-0.2c1.2-2.2,2.4-4.1,3-4.9c0.4-0.5,0.8-0.5,1,0
		c0.4,1.1,0.4,2.4-0.5,4.5c1.6,0,2.1,0.7,2.5,1.2c0.3,0.5,0.1,0.8-0.5,0.8c-0.9-0.1-2.1,0-3.1,0.2c-1.6,2.7-3.8,6.5-5.3,9.9
		c-1.3,2.9-0.9,5.4,0.8,5.5c1.8,0.1,4.1-2.7,5.5-5.7c0.2-0.5,0.7-0.6,0.8,0c0.2,0.6,0,1.4-0.4,2.3c-0.5,1.2-3.1,4.7-6.3,4.5
		c-2.6-0.1-4.7-3-2.8-7.6c0.8-2,2.5-5.3,4.2-8.5C27.4,18.7,26.5,18.1,26.2,17.7z"/>
	<path class="st0" d="M37,33.7c3.3,0.2,6.2-3,7.9-5.7c0.2-0.3,0.5-0.3,0.7,0s0,1.4-0.7,2.5c-1.7,2.4-4.7,4.3-7.8,4.3
		c-5.1,0.1-6.8-4.9-4.2-10s6.7-7.2,8.6-6.1c1,0.6,1.7,1.2,2.4,2.1c0.7,1,0.4,3.4-1.3,5.4c-2,2.4-4.6,3.4-7.4,1.2
		C33.9,31,34.9,33.6,37,33.7z M40.3,24.5c1.3-1.7,2.1-3.7,1.6-4.2c-0.8-0.7-4.1,1.7-6,5.5c-0.1,0.2-0.2,0.5-0.3,0.7
		C37.5,27.7,39.1,26,40.3,24.5z"/>
</g>
<rect x="66.3" y="24.7" class="st3" width="81.1" height="28.6"/>
<g>
	<path class="st0" d="M64.8,33.6V26h-1.3v-1.3h4.2V26h-1.3v7.6h3.1v-3.5H71v4.7h-7.5v-1.3H64.8z"/>
	<path class="st0" d="M71.7,31.3c0-1.1,0.4-2,1.1-2.7c0.7-0.7,1.6-1.1,2.6-1.1c1,0,1.9,0.3,2.6,1c0.7,0.7,1.1,1.6,1.1,2.7
		s-0.4,2-1.1,2.7c-0.7,0.7-1.6,1-2.6,1c-1.1,0-1.9-0.4-2.7-1.1C72,33.3,71.7,32.4,71.7,31.3z M73.2,31.3c0,0.7,0.2,1.3,0.7,1.7
		c0.4,0.4,1,0.7,1.6,0.7c0.6,0,1.2-0.2,1.6-0.7c0.4-0.5,0.6-1,0.6-1.7c0-0.7-0.2-1.3-0.7-1.7c-0.4-0.4-1-0.7-1.6-0.7
		c-0.7,0-1.2,0.2-1.6,0.7S73.2,30.7,73.2,31.3z"/>
	<path class="st0" d="M80.3,34.9v-2.4h1.2v0.2c0,0.3,0.2,0.6,0.5,0.8c0.3,0.2,0.7,0.3,1.1,0.3c0.4,0,0.8-0.1,1.1-0.2
		s0.4-0.4,0.4-0.7c0-0.3-0.1-0.5-0.3-0.6c-0.2-0.1-0.7-0.2-1.3-0.4c-1-0.2-1.7-0.4-2.1-0.8c-0.4-0.4-0.6-0.8-0.6-1.4
		c0-0.6,0.2-1.1,0.7-1.5s1.1-0.6,1.8-0.6c0.7,0,1.2,0.1,1.7,0.4v-0.3h1.2v2.4h-1.2v-0.4c-0.4-0.6-0.9-0.9-1.6-0.9
		c-0.4,0-0.7,0.1-0.9,0.2c-0.2,0.2-0.4,0.4-0.4,0.6c0,0.3,0.1,0.5,0.3,0.6c0.2,0.1,0.7,0.2,1.4,0.3c0.7,0.1,1.2,0.2,1.6,0.4
		c0.4,0.1,0.6,0.4,0.9,0.7c0.2,0.3,0.3,0.7,0.3,1.2c0,0.7-0.3,1.2-0.8,1.6c-0.5,0.4-1.2,0.6-2,0.6c-0.8,0-1.4-0.2-1.9-0.5v0.4H80.3z
		"/>
	<path class="st0" d="M87,29v-1.2H88v-1.1l1.4-1.3v2.4h1.3V29h-1.3v3.4c0,0.6,0,0.9,0.1,1c0.1,0.1,0.2,0.2,0.5,0.2
		c0.3,0,0.5,0,0.8-0.1v1.3C90.3,34.9,90,35,89.6,35c-0.4,0-0.8-0.1-1-0.3s-0.4-0.4-0.5-0.7S88,33.2,88,32.5V29H87z"/>
	<path class="st0" d="M98.8,29.5h2.1v1.2h-1.1c-0.3,0.9-0.6,1.7-1,2.2l0.5,0.7h1.6v1.3h-2.3L97.9,34C97,34.7,96.1,35,95.2,35
		c-1.1,0-1.9-0.3-2.6-1s-1-1.5-1-2.5c0-1.4,0.8-2.4,2.3-3.1c-0.5-0.6-0.7-1.2-0.7-1.8c0-0.7,0.2-1.2,0.7-1.6
		c0.5-0.4,1.1-0.6,1.7-0.6c0.7,0,1.3,0.2,1.7,0.6c0.5,0.4,0.7,0.9,0.7,1.6c0,0.5-0.2,1-0.5,1.3s-0.9,0.7-1.6,1l2.1,2.8
		C98.4,31.2,98.7,30.4,98.8,29.5z M94.7,29.5c-1.1,0.5-1.6,1.2-1.6,2.1c0,0.6,0.2,1.1,0.7,1.6c0.4,0.4,1,0.7,1.6,0.7
		c0.6,0,1.2-0.3,1.8-0.8L94.7,29.5z M95.2,28.1c0.6-0.2,1-0.5,1.2-0.7c0.2-0.2,0.3-0.5,0.3-0.7c0-0.2-0.1-0.5-0.3-0.6
		c-0.2-0.2-0.4-0.3-0.8-0.3c-0.3,0-0.6,0.1-0.8,0.3s-0.3,0.4-0.3,0.7c0,0.3,0.2,0.7,0.5,1.2L95.2,28.1z"/>
	<path class="st0" d="M102.8,33.6V26h-1.3v-1.3h7.9v3.1h-1.3V26h-3.8v3h3.3v1.3h-3.3v3.3h1.3v1.3h-4.1v-1.3H102.8z"/>
	<path class="st0" d="M108.9,31.3c0-1.1,0.4-2,1.1-2.7c0.7-0.7,1.6-1.1,2.6-1.1c1,0,1.9,0.3,2.6,1c0.7,0.7,1.1,1.6,1.1,2.7
		s-0.4,2-1.1,2.7c-0.7,0.7-1.6,1-2.6,1c-1.1,0-1.9-0.4-2.7-1.1C109.3,33.3,108.9,32.4,108.9,31.3z M110.4,31.3
		c0,0.7,0.2,1.3,0.7,1.7c0.4,0.4,1,0.7,1.6,0.7c0.6,0,1.2-0.2,1.6-0.7c0.4-0.5,0.6-1,0.6-1.7c0-0.7-0.2-1.3-0.7-1.7
		c-0.4-0.4-1-0.7-1.6-0.7c-0.7,0-1.2,0.2-1.6,0.7S110.4,30.7,110.4,31.3z"/>
	<path class="st0" d="M125.2,33.6v1.2h-2.6v-0.8c-0.8,0.6-1.6,0.9-2.3,0.9c-0.5,0-0.9-0.1-1.2-0.3c-0.3-0.2-0.5-0.5-0.6-0.8
		c-0.1-0.3-0.2-0.9-0.2-1.6V29h-1v-1.2h2.4v4.3c0,0.5,0,0.9,0,1.1s0.1,0.3,0.3,0.4c0.1,0.1,0.3,0.2,0.5,0.2c0.6,0,1.3-0.3,2.1-0.9
		V29h-1.3v-1.2h2.6v5.9H125.2z"/>
	<path class="st0" d="M128.4,27.8v0.9c0.9-0.6,1.7-1,2.4-1c0.5,0,0.8,0.1,1.1,0.3c0.3,0.2,0.5,0.5,0.6,0.8c0.1,0.3,0.1,0.8,0.1,1.4
		v3.5h1.2v1.2h-2.6v-4.6c0-0.5-0.1-0.9-0.2-1.1c-0.2-0.2-0.4-0.2-0.6-0.2c-0.6,0-1.3,0.3-2.1,0.9v3.8h1.2v1.2h-3.9v-1.2h1.2V29h-1.2
		v-1.2H128.4z"/>
	<path class="st0" d="M143.3,33.6v1.2h-2.7v-1c-0.7,0.8-1.5,1.2-2.5,1.2c-0.9,0-1.7-0.3-2.4-0.9c-0.7-0.6-1-1.5-1-2.7
		c0-1.2,0.4-2.1,1.1-2.8c0.7-0.7,1.5-1,2.4-1c1,0,1.8,0.4,2.5,1.1v-2.8h-1.4v-1.2h2.8v9H143.3z M136.1,31.3c0,0.8,0.2,1.4,0.7,1.8
		c0.4,0.4,1,0.6,1.6,0.6c0.6,0,1.1-0.2,1.6-0.7c0.5-0.4,0.7-1.1,0.7-1.8c0-0.8-0.2-1.4-0.7-1.8c-0.5-0.4-1-0.6-1.6-0.6
		c-0.6,0-1.2,0.2-1.6,0.7C136.3,30.1,136.1,30.6,136.1,31.3z"/>
</g>
</svg>
