<?xml version="1.0" encoding="utf-8"?>
<!-- Generator: Adobe Illustrator 20.0.0, SVG Export Plug-In . SVG Version: 6.00 Build 0)  -->
<svg version="1.1" id="Ebene_1" xmlns="http://www.w3.org/2000/svg" xmlns:xlink="http://www.w3.org/1999/xlink" x="0px" y="0px"
	 viewBox="0 0 493.8 451.6" style="enable-background:new 0 0 493.8 451.6;" xml:space="preserve">
<style type="text/css">
	.st0{fill:#EAEAEA;}
	.st1{fill:#DBDBDB;}
	.st2{fill:#B5B5B5;}
	.st3{fill:#E35B68;}
</style>
<g>
	<path id="favorite-2_3_" class="st0" d="M216.5,104.7l24.9-36c-46-99.4-238.6-83.3-238.6,77c0,80.8,60.9,188.9,238.6,298.2
		c21.1-12.4,41-26.1,58.4-38.5c6.2-3.7,12.4-8.7,17.4-13.7l-24.9-31.1c-7.5,6.2-16.2,12.4-24.9,17.4c-8.7,6.2-17.4,12.4-26.1,17.4
		C114.6,314.7,42.6,223.9,42.6,145.7c0-69.6,47.2-99.4,90.7-99.4c38.5,0,63.4,24.9,80.8,50.9L216.5,104.7z"/>
	<g>
		<path class="st1" d="M268.7,35.1c-12.4,11.2-28.6,32.3-52.2,69.6c0,0,8.7,2.5,41,9.9c0,0,50.9-74.6,121.8-50.9
			C347,10.2,284.9,30.1,268.7,35.1z"/>
		<path class="st2" d="M451.4,53.7C426.5,23.9,385.5,5.2,339.5,6.5c-47.2,1.2-70.8,27.3-70.8,27.3l0,0c14.9-3.7,77-22.4,109.3,29.8
			c6.2,8.7,11.2,21.1,14.9,36c23.6,104.4-133,285.8-133,285.8l36,23.6C414.1,334.5,558.2,182.9,451.4,53.7z"/>
	</g>
</g>
<path class="st3" d="M135.6,206.2l18.9-17.4c22.1,10.7,36,18.8,60.8,36.5c46.6-52.9,77.4-79.7,134.6-115.3L356,124
	c-47.2,41.2-81.8,87.1-131.5,176.3C193.8,264.2,173.3,241.2,135.6,206.2z"/>
</svg>
