<?xml version="1.0" encoding="utf-8"?>
<!-- Generator: Adobe Illustrator 20.0.0, SVG Export Plug-In . SVG Version: 6.00 Build 0)  -->
<svg version="1.1" id="Ebene_1" xmlns:svg="http://www.w3.org/2000/svg"
	 xmlns="http://www.w3.org/2000/svg" xmlns:xlink="http://www.w3.org/1999/xlink" x="0px" y="0px" viewBox="0 0 300 300"
	 style="enable-background:new 0 0 300 300;" xml:space="preserve">
<style type="text/css">
	.st0{fill:#7BB9B9;}
</style>
<g>
	<path class="st0" d="M158.9,60.7c0,0.4,0.9,0.4,1.1-0.1c0.1-0.2,0.1-0.4,0.1-0.5C159.9,59.9,158.9,60.4,158.9,60.7z"/>
	<path class="st0" d="M166.1,112.2c0.1,0,0.1-0.2,0.1-0.5c0-0.3-0.1-0.5-0.3-0.5s-0.2,0.2-0.1,0.5C165.9,112,166,112.2,166.1,112.2z
		"/>
	<path class="st0" d="M199.5,233.4c0.1,0.4,2.2,1.1,3.5,1.2c0.3,0,0.7-0.2,0.9-0.5c0.2-0.3,0.3-0.6,0.2-0.6
		c-0.1-0.1-1.2-0.3-2.5-0.4C199.7,233,199.3,233.1,199.5,233.4z"/>
	<path class="st0" d="M140.2,128.4c-0.6-0.1-1.8,1-1.8,1.7c0,0.6,0.4,0.6,1.6,0C141,129.6,141.1,128.6,140.2,128.4z"/>
	<path class="st0" d="M150,0.8C67.5,0.8,0.6,67.4,0.6,149.5S67.5,298.2,150,298.2s149.4-66.6,149.4-148.7S232.5,0.8,150,0.8z
		 M167.3,46.4c0.2-0.5,1.1-1.1,1.4-0.8c0.3,0.3-0.5,1.2-1,1.2C167.4,46.7,167.2,46.6,167.3,46.4z M91.3,125.3c0-1,1.3-2.6,2-2.6
		c0.5,0,1.2-1.3,1.2-2.2c0-0.3-0.2-1-0.4-1.5c-0.3-0.7-0.3-0.9,0.1-1c0.5-0.2,2.6-2.2,2.6-2.5c0-0.1,0.2-0.6,0.5-1
		c0.5-0.7,0.5-0.7,1.2-0.2c0.4,0.3,1.4,0.5,2.5,0.5c1,0,1.9,0.1,2,0.3c0.4,0.6-0.2,1.6-1.6,2.4c-0.8,0.5-1.4,1.1-1.4,1.3
		c0,0.2-0.3,0.5-0.6,0.7c-1.1,0.6-0.7,1,0.7,0.8c1.3-0.2,4.7,0.4,5.6,0.9c0.4,0.3,0.4,1.3,0,1.6c-0.2,0.1-0.6,0.8-1,1.5
		c-0.4,0.7-1.1,1.8-1.8,2.5c-0.6,0.7-1.1,1.5-1,1.8c0.1,0.4-0.2,0.6-0.8,0.7c-1.3,0.2-1.4,1-0.1,1c2.1,0,3.6,2.3,3.9,6
		c0.2,2.2,0.2,2.4,1.3,3.3c1.5,1.3,1.9,2.1,2.3,4.9c0.2,1.3,0.5,2.8,0.6,3.4c0.2,0.8,0.1,1.1-0.3,1.2c-0.6,0.2-0.7,0.9-0.2,1.3
		c0.2,0.1,0.7,0,1.1-0.2c0.9-0.5,2-0.2,3.1,0.7c1.6,1.2,0.9,4-1.3,5.5c-0.7,0.5-1.3,1.1-1.3,1.3c0,0.2-0.1,0.4-0.3,0.4
		c-0.7,0-0.2,1,0.6,1.2c0.5,0.1,0.9,0.4,0.9,0.5c0,0.1,0,0.4,0,0.6c0,0.7-2.9,1.9-4.6,1.9c-1.2,0-4.1-0.5-4.5-0.8
		c-0.2-0.1-1.4-0.1-2.7,0.1c-2.1,0.3-2.4,0.3-3.5-0.3c-1.7-0.9-2.2-0.8-3.2,0.6c-0.4,0.7-0.9,1.3-0.9,1.3c-0.1,0-0.6-0.3-1.3-0.7
		c-1.3-0.8-3-0.7-3.9,0.2c-0.7,0.6-0.8,0.6-1.3,0c-0.5-0.6-0.5-0.5,0.8-1.2c0.5-0.3,1.6-1.1,2.5-1.9c0.8-0.8,1.6-1.4,1.7-1.4
		c0.1,0,0.5-0.2,0.8-0.5c0.6-0.5,0.7-0.5,2.2,0l1.6,0.6l0.6-0.7c0.8-1,0.7-1.3-0.5-1.1c-1,0.2-1.2,0.1-1.8-0.6
		c-0.4-0.5-0.9-0.8-1.2-0.8c-0.3,0-0.7-0.3-0.9-0.6c-0.3-0.5-0.5-0.6-1.2-0.3c-0.6,0.2-0.9,0.2-1.4-0.3c-1.1-1.1-0.6-1.7,1.6-2.1
		c1.6-0.2,3.4-1.6,3.4-2.6c0-0.9-0.8-1.8-1.4-1.6c-0.7,0.3-0.7,0,0.1-1c0.4-0.5,0.6-1.1,0.5-1.4c-0.2-0.7,0.1-0.7,0.9-0.1
		c0.3,0.3,1.3,0.5,2.1,0.5c1.4,0,1.5-0.1,1.9-1c0.2-0.6,0.4-1.2,0.4-1.3c0-0.2,0.2-0.6,0.4-1c0.3-0.5,0.2-0.8-0.4-1.4
		c-0.4-0.4-0.8-1.2-1-1.8c-0.2-0.9-0.1-1.3,0.5-1.9c0.9-1,0.7-1.2-0.6-0.8c-0.7,0.2-1.3,0.2-1.6,0c-0.3-0.2-0.7-0.2-0.9-0.1
		c-0.5,0.3-1.6-0.6-1.6-1.2c0-0.3,0.3-1,0.7-1.6c0.5-0.8,0.7-1.5,0.8-3.3c0.1-2.5,0.2-2.4-1.5-1.7c-0.3,0.1-0.4,0-0.3-0.7
		c0.1-0.5,0.3-1.2,0.4-1.5c0.2-0.5,0.1-0.6-0.2-0.4C91.2,126.2,91.3,126.2,91.3,125.3z M92.9,139.8c0-0.4,0.9-1.1,1.2-0.9
		c0.2,0.2-0.5,1.2-0.9,1.2C93,140.1,92.9,139.9,92.9,139.8z M91.2,131.3c0.4-0.9,1.4-2.5,1.4-2.1c0,0.6-1,2.6-1.3,2.6
		C91.1,131.8,91.1,131.6,91.2,131.3z M70.6,147.5c0.3-0.1,0.4-0.4,0.3-0.8c-0.2-0.5-0.1-0.6,0.4-0.6c0.6,0,2-1.3,4.1-3.6
		c0.8-1,0.9-1.1,0.2-1.1c-0.3,0-0.6-0.3-0.8-0.6c-0.2-0.4-0.7-0.8-1.2-1l-0.9-0.3l0.9-0.8c0.5-0.4,1.1-0.8,1.4-0.8
		c0.5,0,0.5-0.4-0.1-2.3c-0.3-0.9,1-1,2.2-0.3c1.1,0.7,2.3,0.9,2.6,0.3c0.1-0.2,0.5-0.3,0.8-0.3c0.8,0,0.8-0.6-0.1-1.3l-0.7-0.6
		l0.7-0.2c0.4-0.1,0.8-0.6,0.9-1c0.2-0.9,1.5-1.1,2.6-0.3c0.7,0.5,1.5,0.6,3.3,0.3c1.6-0.3,2.2,0.2,2.7,2.1c0.8,3.1,0.7,3.4-0.9,4.2
		c-0.8,0.4-1.6,0.9-1.8,1c-0.2,0.2-0.4,1.6-0.6,3.3c-0.2,2.7-0.3,3.1-1.5,4.9l-1.3,1.9l-1.6-0.2c-1.4-0.1-3.3,0.3-5.8,1.2
		c-1.1,0.4-1.6,0.5-3,0.3c-1.1-0.1-1.4-0.3-1.5-0.8c-0.1-0.4-0.5-0.8-1-1.1C70,148.8,69.8,147.8,70.6,147.5z M107.6,230.8
		c-0.3,0.2-0.5,0.2-0.6,0.1c-0.1-0.2,0-0.5,0.3-0.7c0.3-0.2,0.5-0.2,0.6-0.1C108,230.3,107.8,230.6,107.6,230.8z M108.7,232
		c-0.2,0.1-0.3,0-0.3-0.1c0-0.2,0.1-0.3,0.3-0.3c0.2,0,0.3,0.1,0.3,0.1S108.9,231.9,108.7,232z M112,229.9c-0.7,0.7-1,0.8-1.5,0.6
		c-0.7-0.4-2.1-1.7-2.1-2c0-0.3,1.8-1.2,2.4-1.2c0.3,0,0.9,0.4,1.3,0.8l0.8,0.8L112,229.9z M116,227.7c-0.3,0-0.7-0.1-0.8-0.2
		c-0.4-0.4-0.2-0.7,0.2-0.7c0.2,0,0.6,0.2,0.8,0.5C116.6,227.6,116.6,227.7,116,227.7z M141.6,225.9c-0.2,0.5-0.3,1.9-0.4,3
		c0,1.1-0.1,2.5-0.3,3c-0.2,0.8-0.4,0.9-1.3,0.9c-0.9-0.1-1.1,0-1.4,0.9c-0.5,1.3-1.4,1.3-2.3-0.2c-0.6-1-0.7-1.3-0.4-2.5
		c0.2-0.7,0.3-2.2,0.2-3.3c-0.1-1.5-0.2-2.1-0.8-2.7c-0.9-0.9-0.6-1.8,0.6-1.8c0.5,0,1.5-0.5,2.4-1.1c1.3-0.9,1.6-1,2.3-0.7
		c0.4,0.2,0.7,0.6,0.7,0.9c0,0.3,0.2,1,0.5,1.6C141.9,224.8,141.9,225.2,141.6,225.9z M137.6,213.2c0.5-0.4,1.1-0.7,1.3-0.7
		c0.2,0,0.6-0.3,0.8-0.6c0.4-0.6,0.5-0.5,0.8,1.2c0.3,1.2,0.3,2.1,0.1,2.6c-0.2,0.4-0.4,1.3-0.5,1.9c-0.1,0.6-0.4,1.5-0.7,1.8
		l-0.5,0.7l-0.9-0.7c-0.7-0.6-0.9-1-1.1-3.1C136.8,213.9,136.8,213.9,137.6,213.2z M192.9,235.4c-0.1,0.1-0.5,0-0.8-0.1
		c-0.6-0.3-0.8-1.2-0.3-1.2C192.3,234,193.2,235.2,192.9,235.4z M210.3,233.1c-0.3,0-0.7-0.1-0.8-0.2c-0.4-0.4-0.2-0.8,0.5-0.7
		C210.8,232.3,211.1,233.1,210.3,233.1z M255.1,162.9c-0.3,0.4-1.4,1.2-2.5,1.7c-1.3,0.6-2.2,1.3-2.4,1.8c-0.2,0.4-0.5,0.8-0.7,0.8
		c-0.2,0-0.5,0.4-0.8,0.9c-0.3,0.5-0.7,0.9-1.1,0.9c-0.3,0-0.7,0.2-0.8,0.5c-0.1,0.3-0.4,0.5-0.7,0.5c-0.6,0-2.4,2.4-2.4,3.2
		c0,0.3-0.3,0.9-0.6,1.3c-0.9,1.1-0.8,1.3,0.5,2.4c2,1.8,2.4,1.8,4.1,0.5c0.8-0.6,1.7-1.1,1.9-1c0.2,0.1,0.4,0.6,0.5,1.1
		c0.1,1.2-0.8,2-2.3,2c-0.8,0-1.1,0.2-1.5,1.1c-0.3,0.6-0.9,1.3-1.4,1.5c-0.5,0.2-1.2,1.1-1.7,2c-1,1.9-1.6,2.3-2.7,1.8
		c-0.6-0.3-0.8-0.6-0.8-1.3c0-1.8-0.4-2.1-2.8-2.4c-1.2-0.1-2.2-0.4-2.2-0.5c0-0.2,0.7-1.1,1.6-2c0.9-0.9,1.6-1.9,1.6-2.2
		c0-0.8-1.9-0.7-3.4,0.1c-1.9,1.1-4.7,0.2-3.6-1.1c0.3-0.4,0.2-0.5-0.2-0.8c-0.5-0.3-0.7-0.2-0.8,0.1c-0.1,0.3-0.5,0.5-0.8,0.5
		s-1.1,0.2-1.7,0.5c-1,0.4-1.1,0.7-1.3,1.8c-0.3,1.7-1.1,3.7-1.5,3.7c-0.2,0-0.4,0.4-0.6,0.8c-0.2,0.4-0.4,0.8-0.6,0.8
		c-0.4,0-0.4,1,0,1.5c0.2,0.2,0.3,1,0.4,1.9c0.1,1.4,0,1.6-0.8,2c-0.8,0.5-0.9,0.4-1.3-0.1c-0.4-0.6-0.5-0.5-0.5,1.1
		c0,1,0,2.2-0.1,2.8c0,0.6,0.1,2,0.2,3c0.2,1.8,0.2,2-0.4,2.2c-1,0.3-1.4,1.3-1.2,2.8c0.1,1,0,1.5-0.4,2.2c-0.7,1.1-0.8,1.4-0.2,1.4
		c0.6,0,2.3,1.9,2.6,2.9c0.2,1,1.6,1.8,2.9,1.8c1.6,0,2.3,0.3,2.3,1.1c0,0.8-0.5,1.1-2.3,1.1c-0.7,0-1.6,0.2-1.9,0.5
		c-0.3,0.3-0.9,0.5-1.2,0.5c-0.4,0-0.8,0.4-1,1c-0.6,1.4-1.6,2.3-2.8,2.3c-0.5,0-1.4,0.2-1.9,0.3c-0.6,0.2-1,0.1-1.3-0.3
		c-0.6-0.8-3.9-0.8-5-0.1c-0.5,0.3-1.2,0.5-1.5,0.4c-0.4-0.1-0.8,0.1-1.2,0.6c-0.3,0.4-0.9,0.8-1.3,0.8c-0.8,0.1-0.8,0.4-0.5,1.7
		c0.3,1.1-0.3,1.5-2.1,1.5c-1.2,0-1.8-0.1-2.1-0.6c-0.6-0.8-1.1-0.3-1.1,1c0,1,0.3,1.5,1.9,3.2c1,1.1,1.9,2.1,1.9,2.1
		c0,0-0.3,0.1-0.6,0.1c-0.3,0-0.7,0.2-0.8,0.4c-0.3,0.5,0.8,1.2,1.7,1c0.5-0.1,1,0,1.3,0.3c0.3,0.3,1.1,0.6,1.8,0.7
		c1.4,0.2,2,0.6,2,1.3c0,0.4-0.3,0.5-1.3,0.5c-0.8,0-1.4-0.2-1.5-0.4c-0.2-0.5-2.4-1.7-3.2-1.7c-1,0-1.1,0.6-0.1,1
		c0.5,0.2,1.2,0.5,1.7,0.7c0.4,0.2,1.2,0.5,1.7,0.8c0.5,0.2,1.2,0.5,1.5,0.6c0.5,0.2,1.1,2.6,0.8,3c-0.1,0.1-0.6-0.2-1.2-0.6
		c-0.9-0.7-1-0.7-2.1-0.2c-1.3,0.6-1.3,1-0.1,2.1c0.8,0.7,0.9,1,0.5,1.1c-0.3,0.1-0.9,0-1.4-0.1c-1.4-0.5-1.4,0-0.2,1.9
		c0.6,0.9,1.2,2.1,1.3,2.7c0.2,1.1,0,1.1-1.1,0.1c-0.7-0.6-1.4-0.3-1.6,0.8c-0.1,0.8-0.1,0.8-0.4,0.3c-0.9-2.1-2.4-3.1-2.4-1.6
		c0,1.2-0.5,1.2-1.3,0.2c-0.5-0.7-0.6-1.2-0.5-1.8c0.2-0.7,0-1-1.3-2.1l-1.5-1.3l0.5-1c0.3-0.5,0.8-1.1,1.1-1.1
		c1.2-0.3,0.7-0.9-0.6-0.8c-1.2,0.1-1.3,0-2.9-1.9c-0.9-1.1-2.3-2.5-3-3.1c-0.7-0.6-1.6-1.6-1.9-2.3c-0.5-1-1.9-2.3-3-2.7
		c-0.2-0.1-0.3-1.1-0.3-2.9c0-1.5-0.1-3.1-0.3-3.4c-0.2-0.4-0.2-0.8,0.1-1.2c0.5-0.8,0.2-1.6-0.6-1.6c-0.3,0-0.9-0.3-1.2-0.7
		c-0.9-1-2.9-2.3-5.4-3.5c-1.2-0.6-2.3-1.2-2.5-1.4c-1.1-1.2-3.3-2.4-4.9-2.6c-1.1-0.1-1.9-0.4-2.4-0.9c-0.4-0.4-1.2-1.1-1.9-1.5
		c-0.8-0.6-1.2-1.1-1.2-1.8c0-0.5-0.3-1.1-0.6-1.5c-0.3-0.3-0.6-1-0.6-1.4c0-1.1-1.4-2.8-2.2-2.8c-0.4,0-0.7,0.3-0.8,0.9
		c-0.1,0.5-0.4,1.1-0.7,1.4c-0.5,0.5-0.5,0.5-1.1,0c-0.9-0.8-1.3-2.6-0.8-3.4c1.1-1.5-1-2.1-2.8-0.7c-0.6,0.4-1.4,0.9-1.9,1.1
		c-1.2,0.5-1.4,1.1-0.6,2.2c0.8,1.1,0.8,1.3,0.2,2c-0.4,0.4-0.5,0.9-0.3,1.8c0.2,1.4,1.5,2.6,4.4,4.4c1.3,0.8,1.7,1.2,2.1,2.5
		c1.2,3.2,1.7,4,3.5,5.6l1.9,1.6l2.6,0c1.4,0,2.7,0,2.8,0.1c0.1,0,0,0.5-0.3,1c-0.6,1-0.6,1,0.1,1.5c0.4,0.3,1.5,0.8,2.4,1
		c0.9,0.2,2.4,0.8,3.4,1.3c0.9,0.5,1.9,0.9,2.1,0.9c0.2,0,0.7,0.3,1,0.6c0.3,0.3,1,0.9,1.6,1.3c1,0.7,1.3,1.9,0.7,2.9
		c-0.4,0.7-1.5,0.1-1.9-0.9c-0.2-0.5-0.7-1-1.1-1.1c-0.4-0.1-1.1-0.2-1.6-0.3c-2.3-0.5-2.6-0.2-3.6,2.9c-0.4,1.2-0.3,1.4,1.3,2.1
		c1.2,0.5,1.8,1.5,1.8,2.8c0,0.4-0.5,0.8-1.2,1.2c-1,0.5-1.2,0.8-1.3,1.7c-0.1,0.6-0.4,1.4-0.7,1.7s-0.8,1.1-1.1,1.7
		c-0.6,1.2-1.3,1.3-2.3,0.4l-0.7-0.7l-0.5,0.9c-0.3,0.5-0.6,1.5-0.9,2.2c-0.3,1.1-0.3,1.4,0.1,2.3c0.5,1,0.5,1.1,0,2.1
		c-0.4,0.9-0.7,1.1-1.6,1.1c-0.8,0-1.4-0.3-2.2-1.1c-0.7-0.7-1.4-1.1-2-1.1c-0.5,0-1.8-0.5-2.9-1.1c-1.1-0.6-2.3-1.1-2.7-1.1
		c-1.1,0-2-1.1-1.6-2.1c0.2-0.7,0.5-0.9,1.3-0.9c0.5,0,1.2-0.2,1.5-0.4c0.5-0.4,0.7-0.4,1.7,0.1c1.3,0.6,4.5,0.4,5.7-0.3
		c0.4-0.2,1-0.4,1.4-0.4c0.7,0,2.3-0.4,3.5-1c0.3-0.1,0.5-0.7,0.6-1.2c0.1-0.6,0.4-1.2,0.9-1.5l0.8-0.5l-0.6-1.5
		c-0.6-1.3-1-2.3-2.2-4.8c-0.1-0.3-0.6-0.5-1-0.6c-1.5-0.2-2.5-0.8-2.5-1.4c0-1.2-0.6-1.9-1.6-1.7c-0.7,0.1-0.9,0-1.1-0.4
		c-0.1-0.4-0.5-0.6-0.9-0.6c-0.4,0-1-0.4-1.4-1.1c-0.7-1.1-0.9-1.2-3.2-1.2c-0.8,0-2.9-1.3-3.9-2.3c-0.3-0.3-0.8-0.9-1.2-1.2
		s-1.1-1.1-1.7-1.7c-0.5-0.6-1.2-1-1.6-1c-0.3,0-0.8-0.4-1-0.9c-0.3-0.5-1-1.3-1.6-1.7c-0.7-0.6-1.1-1.2-1.3-1.9
		c-0.2-1.3-1.2-4.1-1.6-4.6c-0.2-0.2-0.8-0.6-1.3-0.9c-0.5-0.3-1.6-0.8-2.4-1.2c-0.8-0.4-1.7-0.8-2-0.8c-0.3,0-1.3,0.8-2.2,1.7
		c-1,1.1-2,1.7-2.4,1.7c-1.2,0-2.7,0.8-4.1,2.2c-2.1,2-3.9,2.1-6.3,0.2c-0.4-0.3-1.2-0.6-1.8-0.6c-0.6,0-1.6-0.3-2.3-0.6
		c-1.6-0.8-1.7-0.8-3.1,0.1c-2.1,1.3-2.7,2-2.7,3.4c0,0.7,0.2,1.6,0.4,1.9c0.3,0.5,0.3,0.8,0,1.3c-0.2,0.4-0.3,0.8-0.2,0.9
		c0.4,0.7-0.6,1.6-3.4,2.9c-1.8,0.9-3.6,1.5-4.7,1.6c-2,0.2-3.5,0.9-3.5,1.6c0,0.3-1.1,1.6-2.5,3.1c-3.1,3.2-3.6,4.2-3.2,5.9
		c0.2,0.7,0.6,1.5,1,1.8c0.9,0.8,0.8,1.1-0.7,1.7c-0.7,0.3-1.6,0.9-2,1.3c-1.3,1.5-2.1,2.8-2,3.3c0.1,0.5-0.1,0.5-1.2,0.4
		c-1.7-0.1-3,0.6-4.2,2.3c-0.9,1.3-1.1,1.4-1.8,1.2c-0.5-0.1-1.1-0.2-1.5-0.2c-1.2,0.1-1.6,0.1-3.2-0.3c-5.4-1.1-5.5-1.1-6.2-0.6
		c-0.4,0.3-1.3,0.5-2,0.5c-0.8,0-1.5,0.2-1.7,0.5c-0.2,0.3-0.8,0.7-1.3,1c-0.8,0.4-0.9,0.4-1.9-0.4c-0.9-0.8-1.4-1.9-1.8-4.4
		c-0.2-1.3-1.9-3-3.2-3.2c-0.6-0.1-1.6,0-2.2,0.1c-1,0.3-1.3,0.2-2.7-0.5c-1-0.5-1.9-0.8-2.5-0.7c-1.1,0.2-1.1,0.1-0.3-1.3
		c0.3-0.6,0.7-1.6,0.8-2.4c0.1-0.7,0.4-2,0.7-2.7c0.3-0.8,0.4-1.4,0.2-1.5c-2.2-0.8-2.8-2.2-1.7-4.2c0.4-0.8,1.2-1.9,1.7-2.4
		c0.6-0.6,1.5-2,2-3.2c0.6-1.2,1.2-2.4,1.5-2.7c0.3-0.3,0.6-1.7,0.7-3.7c0.1-1.7,0.5-3.8,0.8-4.5c0.3-0.8,0.5-1.7,0.5-2.1
		c0-0.4,0.1-0.8,0.3-0.9c0.6-0.4,0.3-1.1-0.4-1.4c-0.4-0.2-0.9-0.4-1-0.6c-0.4-0.6,0.5-1.6,1.6-1.8c0.7-0.1,1.9-0.6,2.7-1
		c2.1-1,3.5-1,4.4,0.2c0.6,0.8,1,0.9,3.4,1.3c1.7,0.2,3.5,0.8,4.8,1.4c3.4,1.6,4.4,1.9,5.9,1.6c1.1-0.2,1.5-0.1,2.2,0.5
		c0.5,0.4,1.3,0.7,1.7,0.7s1.5,0.3,2.3,0.7c1.6,0.8,3.3,0.6,4.1-0.3c0.5-0.5,2.2-5.8,2.2-6.7c0-0.9,0.9-4,1.3-4.3
		c0.2-0.2,0.4-1.2,0.4-2.5c0-2.1,0-2.2-1.1-2.9c-1.2-0.8-2.3-2.9-2-4c0.1-0.5,0-0.9-0.4-1.2c-0.3-0.2-0.5-0.8-0.5-1.3
		c0-0.5-0.2-0.9-0.4-0.9c-0.2,0-0.9-0.4-1.4-0.9c-0.6-0.5-1.3-1-1.6-1c-0.3,0-0.9-0.3-1.3-0.6c-0.4-0.3-1.1-0.6-1.5-0.6
		c-0.9,0-1.6-1.2-1.1-1.7c0.5-0.5,0.4-1.5-0.1-1.5c-0.7,0-0.6-1.2,0.2-1.4c0.4-0.1,1.3-0.2,2.1-0.1c0.8,0,1.8,0,2.2-0.2
		c0.9-0.3,2.2,0.3,2.4,1.1c0.1,0.4,0.5,0.6,1.3,0.6c0.6,0,1.1,0.1,1.1,0.3c0,0.2,0.6,0.2,1.3,0.2l1.3-0.1l-0.1-2
		c0-1.1-0.1-2.4-0.2-3c-0.1-0.8,0-1,0.8-1c0.6-0.1,0.9,0.1,1.1,0.5c0.4,1.2,0.7,1.4,2.6,2.1c2.1,0.7,2.9,0.5,2.9-0.7
		c0-0.8,0.6-1.2,2.4-1.6c0.9-0.2,2-0.6,2.5-0.9c0.8-0.5,1-0.8,1.1-2.4c0.2-2.2,0.5-2.6,2.2-2.8c1.9-0.3,5.6-1.8,5.6-2.3
		c0-0.2,0.1-0.4,0.3-0.4c0.9,0,4-4.5,4.2-6.3c0.2-1.1,0.4-1.3,1.1-1.5c0.5-0.1,1.2-0.6,1.7-1c1.1-1,4.1-1.8,5-1.4
		c0.5,0.3,0.8,0.2,1.3-0.4c0.4-0.4,1.2-0.9,1.7-1c0.9-0.2,1.1-0.1,1.6,0.8c0.7,1.2,1.3,1.3,1.3,0.1c0-1,0.3-1.5,1-1.8
		c0.5-0.2,0.7-1,0.6-2.1c0-0.3-0.1-0.8-0.1-1.2c0-0.4-0.2-1.2-0.5-1.7c-0.3-0.6-0.4-1.3-0.3-2c0.2-1.2-0.2-2.2-1.1-2.5
		c-0.8-0.2-0.8-1.4-0.1-1.9c0.5-0.4,0.5-0.4,0-1.2c-0.5-0.7-0.5-1.1-0.2-2.3c0.2-0.8,0.4-1.8,0.5-2.3c0.3-1.2,1-1.9,2.2-1.9
		c0.6,0,1.3-0.2,1.6-0.6c1.5-1.8,2-2.3,2.5-2.3c0.6,0,1,1.3,0.7,2.5c-0.1,0.5-0.3,1.5-0.4,2.2c-0.2,1.3-0.1,1.4,0.8,1.7
		c1.5,0.5,1.1,2.2-0.5,2.2c-0.6,0-0.7,0.2-0.7,0.9c0,0.5-0.2,1.2-0.5,1.5c-0.7,0.9-0.6,1.1,0.6,0.9c1.3-0.2,1.8,0.4,1.9,1.9
		c0.1,1.6-1.1,1.6-2.5,0.1c-0.6-0.7-1.2-1.1-1.3-1c-0.1,0.1-0.2,0.9-0.2,1.8c-0.1,1.4,0,1.7,0.6,2.1c0.4,0.3,0.7,0.8,0.7,1.2
		c0,0.6,0.2,0.8,1.2,1.1c0.7,0.2,1.4,0.2,1.7,0.1c0.7-0.3,1,0.5,0.4,1.1c-0.6,0.7-0.6,0.7,0.6,1.2c0.8,0.3,0.9,0.3,1.4-0.4
		c0.3-0.4,0.8-0.8,1.1-0.8c0.3,0,1-0.4,1.5-1c0.6-0.7,1.1-0.9,1.5-0.8c0.4,0.1,0.8-0.1,1.2-0.4c0.7-0.8,1.4-0.8,1.7,0.1
		c0.2,0.5,0.1,0.9-0.2,1.3c-0.4,0.5-0.4,0.6,0,0.9c0.3,0.2,0.6,0.3,0.7,0.3s0.2,0.2,0.2,0.4s0.3,0.7,0.6,1c0.6,0.5,0.6,0.5,0.9,0
		c0.4-0.7,2.9-2,5-2.6c0.8-0.2,1.6-0.8,2-1.3c0.8-1.1,4.6-3.1,6-3.1c0.8,0,1,0.2,1.4,1.1c0.4,1,0.6,1.1,1.6,1.1c1.4,0,3-1.4,3-2.6
		c0-1.1,0.5-1.4,2.4-1.5c1.5-0.1,1.6-0.1,1.6-1c0-0.5-0.2-1.4-0.4-2.1c-1.3-3.4-1.9-7.1-1.3-8.6c0.2-0.5,0.4-1.5,0.5-2.3
		c0.1-1.1,0.3-1.5,1.1-2.2c0.6-0.5,1.2-0.9,1.4-0.9c0.2,0,1.2,0.8,2.2,1.7c1,1,2.1,1.7,2.3,1.7c0.8,0,1.9-1.3,1.9-2.3
		c0-0.5-0.2-1.3-0.5-1.7c-0.2-0.5-0.4-1.5-0.4-2.3c0.1-1.6-0.2-2.1-0.8-1.5c-0.9,0.7-2.3-0.6-2.7-2.6c-0.1-0.5-0.3-1.2-0.5-1.5
		c-0.2-0.4,0-0.6,0.6-0.9c0.4-0.2,0.9-0.6,0.9-0.9c0.1-0.4,0.7-0.7,1.8-1.1c0.9-0.3,1.9-0.7,2.3-1c0.5-0.3,1.5-0.5,3.1-0.5
		c3.3,0,4-0.3,4-1.3c0-0.5,0.3-1.1,0.8-1.4c0.4-0.3,1.1-0.9,1.5-1.3c0.5-0.5,1.1-0.7,1.8-0.7c1.5,0,1.7-0.3,0.6-1
		c-0.8-0.5-1.1-0.5-1.7-0.2c-0.6,0.3-0.9,0.2-1.6-0.2c-0.5-0.3-1-0.8-1.2-1.1c-0.3-0.6-0.4-0.5-1.6,0.2c-0.7,0.4-1.5,0.8-1.8,0.8
		s-0.8,0.2-1,0.5c-0.2,0.3-0.9,0.6-1.5,0.7c-0.8,0.1-1.1,0.4-1.1,0.8c0,0.4-0.2,0.6-0.4,0.5c-0.2-0.1-0.7,0.1-1,0.4
		c-0.3,0.3-0.8,0.7-1.2,0.8c-0.4,0.1-1.3,0.6-2.1,1.1c-1.8,1.1-2.8,1.1-3.9,0.1c-0.8-0.7-2.2-1.3-4-1.5c-1-0.1-1.4-1.3-1.3-4.2
		c0-1.5-0.1-2.4-0.4-2.9c-0.3-0.4-0.8-1.8-1.3-3.2c-0.8-2.3-0.8-2.5-0.3-3.2c0.3-0.4,0.5-1.1,0.4-1.5c-0.1-0.5,0.1-0.8,0.6-0.8
		c1-0.2,1.4-0.7,1.4-1.7c0-0.6,0.4-1.4,1-2.2c1-1.2,2-3.5,2.4-5.3c0.1-0.4,0.6-1.3,1.1-1.8c0.8-0.8,0.9-1.1,0.6-1.4
		c-0.2-0.2-0.4-0.7-0.4-1.2c0-0.9-0.5-1.6-1.2-1.6c-0.3,0-0.7-0.2-1-0.5c-0.6-0.5-1.3-0.4-3.6,0.5c-0.3,0.1-0.9,0.3-1.2,0.4
		c-0.4,0.1-0.7,0.5-0.9,1c-0.1,0.5-0.5,1.1-0.8,1.2c-0.4,0.2-0.4,0.5-0.3,1.2c0.1,0.6,0,1.2-0.3,1.7c-0.5,0.8-0.5,0.8,0.3,1.7
		l0.9,0.9l-0.7,1.4c-0.4,0.8-0.7,1.6-0.7,1.9c0,0.5-2.1,2.8-2.6,2.8c-0.2,0-0.5,0.5-0.7,1.1c-0.2,0.6-0.7,1.2-0.9,1.3
		c-0.3,0.1-0.7,0.7-1,1.2c-0.3,0.6-0.6,1.2-0.8,1.5c-0.2,0.3-0.4,0.7-0.5,1.1c-0.1,0.3-0.5,0.7-0.8,0.7c-0.7,0.2-0.9,0.9-0.3,1.2
		c0.5,0.3,0.3,3.6-0.2,3.8c-0.3,0.1-0.3,0.3-0.1,0.8c0.2,0.3,0.3,1.1,0.3,1.7c0,0.6,0.1,1.6,0.3,2.2c0.3,1,0.5,1.2,1.1,1.2
		c0.5,0,1.1,0.3,1.5,0.7c1.3,1.2,1.5,1.5,2.4,2.4c1,1,1.1,1.3,0.2,2.2c-0.4,0.4-0.7,1.2-0.8,1.9c-0.1,1.2-0.9,2.4-1.6,2.4
		c-0.2,0-0.4,0.1-0.4,0.3s-0.5,0.8-1.1,1.3l-1.1,1l-0.1,5.2c-0.1,4.8,0,5.2,0.5,5.1c0.6-0.1,0.7,0.4,0.3,1.8l-0.2,0.8l-0.2-0.9
		c-0.3-1.2-0.8-0.7-1.3,1.1l-0.3,1.3l-1.8,0.2c-1.1,0.1-2.1,0.4-2.7,0.8c-0.8,0.6-0.9,0.9-0.9,2.2v1.5l-1.7,0.3
		c-2.1,0.3-2.6,0.1-2.6-0.9c0-0.9-0.5-2-1-2c-0.2,0-0.3,0.3-0.3,0.7c0,0.4-0.2,1-0.5,1.3c-0.4,0.4-0.4,0.7-0.2,1
		c0.3,0.3,0.2,0.5-0.1,0.9c-0.3,0.3-0.6,1.1-0.7,1.8c-0.1,1-0.3,1.3-1.1,1.6c-0.7,0.3-1,0.2-1.6-0.3c-0.9-0.7-0.6-1,0.8-1.1
		c1.4,0,1.4-1.1,0-1.7c-0.8-0.4-1-0.6-1-1.3c0-0.5-0.1-1-0.3-1.1c-0.5-0.3-0.4-0.8,0.1-0.8c0.2,0,0.6-0.2,0.9-0.4
		c0.2-0.2,1.1-0.8,1.9-1.3c0.8-0.5,1.7-1.3,2-1.9l0.6-1.1l-0.9-1.2c-1.3-1.7-2-3.1-2.7-4.9c-0.4-1.3-0.5-1.3-0.2-2.9
		c0.2-1.2,0.2-1.2-0.7-1.1c-0.9,0.1-0.9,0-1.1-1.5c-0.1-0.9-0.1-2,0-2.6c0.1-0.9,0.1-1-0.5-1c-0.5,0-0.8-0.3-1.1-0.9
		c-0.4-1.1-0.9-1.2-0.9-0.3c0,0.7-0.6,1.9-1.1,2.3c-0.2,0.1-0.6,0.2-0.9,0.1c-0.4-0.1-0.9,0.3-1.8,1.5c-1.6,2.2-2.8,3.1-4.4,3.7
		c-1.5,0.5-3.6,0.2-3.6-0.5c0-0.2-0.4-0.7-0.9-0.9c-1.1-0.5-2.6-2.2-2.6-2.9c0-0.2,0.3-0.6,0.6-0.8c1-0.7,1.6-2,1.4-2.7
		c-0.2-0.8-0.9-0.9-1.2-0.2c-0.3,0.7-0.8,0.6-0.8-0.2c0-0.3,0.4-0.9,0.8-1.1c0.5-0.3,0.7-0.7,0.6-1.1c-0.1-0.3,0.1-0.8,0.5-1.1
		c0.9-0.8,0.8-1.2-0.2-0.9c-0.9,0.2-1.7-0.3-1.7-1c0-0.2,0.2-0.4,0.5-0.4c0.6,0,0.6-0.2-0.1-1.2c-0.5-0.6-0.6-1.2-0.6-2.7
		c0-1.1,0.2-2.1,0.3-2.3c0.2-0.2,0.2-0.7,0.1-1c-0.3-0.9,1-2.9,1.8-2.9c0.4,0,0.7-0.3,0.8-0.6c0.1-0.4,0.4-0.6,0.8-0.6
		c0.3,0,0.8-0.3,1-0.8c0.2-0.4,0.6-0.9,1-1c0.4-0.1,0.6-0.4,0.5-1c-0.1-0.7,0-0.8,0.7-0.7c0.4,0.1,1.4-0.1,2.1-0.3
		c0.7-0.2,1.5-0.4,1.7-0.5c0.3-0.1,0.3-0.2,0.1-0.6c-0.5-0.6-0.1-1.1,0.9-1c0.9,0.1,1,0,2.3-3c0.4-0.8,0.9-1.7,1.2-1.9
		c0.3-0.2,0.6-0.7,0.8-1.2c0.2-0.6,0.4-0.7,1.2-0.5c0.9,0.2,0.9,0.2,0.8-0.6c-0.2-0.8,0-1.1,2.2-2.9c0.9-0.8,0.9-0.8,0.2-1
		c-0.8-0.2-0.9-0.7-0.2-2.1c0.3-0.6,0.7-1.3,0.8-1.7c0.2-0.3,0.3-1.4,0.3-2.3c0-1.6,0.1-1.8,0.9-2.2c0.6-0.3,0.9-0.7,0.8-1.2
		c0-0.4,0.2-0.7,0.6-0.7c0.6-0.1,0.7-0.3,0.7-1.2c0-0.8,0.2-1.3,0.8-1.9c0.7-0.7,0.8-0.8,0.3-1c-0.6-0.2-0.7-1.1,0-1.1
		c0.3,0,0.5,0.1,0.5,0.3s0.2,0.3,0.5,0.3s0.4-0.1,0.3-0.3c-0.3-0.5,0.5-1.3,1.2-1.1c0.7,0.2,0.8-0.1,0.1-0.9c-0.5-0.5-0.5-0.6,0-1.4
		c0.7-1.1,0.4-1.4-0.9-1.1c-0.9,0.2-1.2,0.1-1.7-0.4c-0.9-0.9-0.8-1,0.3-1.6c0.7-0.4,1.1-0.4,1.4-0.2c0.2,0.2,0.5,0.3,0.7,0.2
		c0.2-0.1,0.5,0,0.7,0.3c0.8,1,1.6,0.4,2-1.7c0.2-1.1,0.1-1.2-0.8-0.7c-0.5,0.3-0.6,0.2-0.6-0.2c0-1,1.1-2,2.1-1.9
		c0.7,0.1,1-0.1,1.3-0.9c0.3-0.7,0.4-1.1,0.1-1.5c-0.4-0.6-0.2-0.9,0.6-0.9c0.3,0,0.6,0.2,0.6,0.5c0,0.3,0.3,0.4,1.2,0.3
		c0.7-0.1,1.5-0.3,1.8-0.5c0.3-0.2,0.8-0.3,1.1-0.4c0.3,0,0.5-0.2,0.5-0.5c0-0.3-0.2-0.5-0.5-0.5c-0.3,0-0.7-0.1-0.9-0.1
		c-0.6-0.1-0.5-0.9,0.2-1.1c0.8-0.2,3,0.3,3.3,0.8c0.2,0.3,0.3,0.2,0.3-0.3c0-0.4-0.2-1.1-0.5-1.5c-0.6-0.9-0.4-1.4,0.6-1.4
		c1.1,0,1.4-0.4,1.5-1.6c0.1-0.9,0.3-1.1,0.8-1.2c0.5-0.1,0.7-0.3,0.7-0.7c0-0.3,0.1-0.6,0.3-0.6c0.4,0,0.7,0.5,0.4,0.8
		c-0.1,0.1-0.3,0.7-0.3,1.2c-0.4,4.3-0.2,4.9,0.6,2c0.7-2.6,1.1-3.1,1.4-1.8c0.4,1.6,1.1,1.2,1.1-0.6c0-1.3,0.1-1.6,0.7-1.9
		c1-0.5,1.6,0.1,1.3,1.5c-0.1,0.7-0.1,1.1,0.2,1.1c0.2,0,0.3-0.2,0.2-0.6c-0.1-0.3,0-0.8,0.3-1.2c0.4-0.6,0.5-0.6,1.1,0
		c0.5,0.5,0.8,0.5,1.1,0.2c0.3-0.3,0.7-0.2,1.6,0.3c1.4,0.8,1.4,1.2,0.2,2.5c-0.8,0.8-0.9,1-0.6,1.6c0.4,0.7,1,0.8,1.4,0.3
		c0.1-0.2,0.6-0.3,1-0.3c1.1,0,2-0.5,2-1.2c0-0.4,0.2-0.5,1.2-0.3c1.4,0.3,1.5,0.3,1.2,0.7c-0.1,0.2-0.5,0.2-0.9,0.1
		c-0.5-0.1-0.6-0.1-0.5,0.3c0.1,0.3,0.6,0.4,1.5,0.4c1,0,1.3,0.1,1.5,0.6c0.2,0.8,0.5,0.8,1,0c0.9-1.4,7-1.1,10,0.5
		c0.5,0.3,2.1,0.7,3.5,0.9c4,0.6,4.4,0.8,5.8,2.4c1.2,1.4,1.3,1.6,1.3,3.6c0,2.4-0.4,3.3-2,4.8c-1.6,1.5-2.1,1.6-10.1,1.8
		c-3.8,0.1-4.6,0-5.8-0.8c-0.3-0.2-0.6-0.3-0.8-0.2c-0.4,0.4,0.9,1.5,2.1,1.8c0.7,0.2,1.4,0.6,1.5,0.9c0.2,0.3,0.8,0.7,1.6,0.8
		c0.7,0.1,1.5,0.5,1.9,0.8c0.6,0.6,1.3,2.7,0.9,3c-0.1,0.1,0.3,0.8,0.9,1.4c0.6,0.7,1.2,1.7,1.3,2.2c0.2,1.1,1.3,1.6,2.6,1.3
		c0.5-0.1,1.1,0,1.7,0.5c1.8,1.4,4.7,0.7,4.7-1.1c0-0.8-0.9-1.8-1.5-1.5c-0.2,0.1-0.6,0.3-0.8,0.3c-0.2,0.1-1-0.3-1.8-0.8
		c-1.3-0.9-1.3-1-1.1-2.1c0.1-0.6,0.3-1.2,0.3-1.3c0.1-0.1,0.6,0,1.2,0.2c1.3,0.4,5.9,0.7,6.1,0.3c0.1-0.2,0.5-0.3,0.9-0.3
		c1.5,0,0.6-1.7-1.5-2.9c-0.7-0.4-1.3-1-1.4-1.4c-0.2-0.9,0.6-3.8,1.3-4.6c0.3-0.3,0.6-1.2,0.7-2.1c0.2-1.5,0.3-1.5,1.5-1.7
		c1-0.2,1.4-0.1,2.1,0.4c1.7,1.3,4.2,2.9,5.2,3.2c1.6,0.5,1.8,0.8,1.8,2.8c0,1.6,0.1,1.9,0.9,2.4c1,0.6,3.6,2.9,6.6,5.7l2.1,1.9
		l0.2,2.2c0.1,1.3,0.5,2.6,0.9,3.3c0.4,0.6,0.7,1.5,0.7,1.9c0,1.5,1.3,3.6,3.9,6.2c2.4,2.4,2.6,2.8,2.7,4c0,0.7,0.2,2.7,0.3,4.4
		c0.3,3.4,0,2.9,4.1,7.2c1.7,1.8,2.4,2.8,2.8,4.1c0.3,1,0.9,2.4,1.3,3.3c0.8,1.6,0.8,1.6,0.2,3.4c-0.4,1.3-0.5,2.2-0.3,3.3
		c0.4,2.4,2.4,6.7,4,8.7l2.6,6.6c0,0,2.9,8.4,2.9,16.9c0,8.6-1.3,4.1-3.9,12.5C257.6,159.5,255.6,162.2,255.1,162.9z M205.5,222
		c-0.2,0-0.4-0.1-0.5-0.3c-0.1-0.2-0.1-0.3,0.1-0.3c0.2,0,0.4,0.1,0.5,0.3C205.7,221.9,205.7,222,205.5,222z M203.9,222.6
		c0,0.2-0.1,0.3-0.1,0.3c-0.1,0-0.2-0.1-0.3-0.3c-0.1-0.2,0-0.3,0.1-0.3S203.9,222.5,203.9,222.6z M169.3,122.3
		c1.2-1.7,1.7-1.5,1.5,0.7c-0.2,2.3-1.3,4-1.8,2.6C168.6,124.7,168.8,123.1,169.3,122.3z M181.8,115.4c0.7,0,1.1,0.8,0.7,1.5
		c-0.4,0.7-2.1,1.6-2.6,1.5C178.7,117.9,180.3,115.4,181.8,115.4z M181.1,113.2c0.9,0,1.1,0.5,0.6,1.3c-0.5,0.8-0.7,0.8-1.2,0.2
		C180,114,180.3,113.2,181.1,113.2z"/>
	<path class="st0" d="M121.7,159.7c-0.4-0.3-0.5-0.3-0.5,0.1c0,0.3,0.1,0.6,0.2,0.7c0.3,0.3,0.7,0.3,0.7-0.1
		C122.2,160.2,122,159.9,121.7,159.7z"/>
	<path class="st0" d="M146.1,87.4c-0.5,0.3-0.8,0.8-0.8,1.1c0,0.3-0.4,0.9-0.9,1.4c-1.2,1-1.2,1.1,0.1,0.9c0.7-0.2,1.1-0.4,1.1-0.9
		c0.1-0.4,0.3-0.7,0.6-0.7c0.2,0,0.5-0.3,0.5-0.6c0-0.3,0.1-0.8,0.2-1.1C147,86.9,146.9,86.9,146.1,87.4z"/>
	<path class="st0" d="M162.7,112.8c0,0.1,0.8,0.5,1.8,0.8c2.3,0.6,2.2,0.6,2.5,0.2c0.3-0.5-0.4-1.2-1.2-1.2c-0.4,0-0.9-0.1-1.2-0.1
		C163.7,112.4,162.7,112.5,162.7,112.8z"/>
</g>
</svg>
