<?xml version="1.0" encoding="utf-8"?>
<!-- Generator: Adobe Illustrator 20.0.0, SVG Export Plug-In . SVG Version: 6.00 Build 0)  -->
<svg version="1.1" id="Ebene_1" xmlns="http://www.w3.org/2000/svg" xmlns:xlink="http://www.w3.org/1999/xlink" x="0px" y="0px"
	 viewBox="0 0 200 200" style="enable-background:new 0 0 200 200;" xml:space="preserve">
<style type="text/css">
	.st0{fill:none;stroke:#7BB9B9;stroke-width:11;stroke-miterlimit:10;}
	.st1{fill:#7BB9B9;}
</style>
<circle class="st0" cx="100" cy="100" r="93.7"/>
<g>
	<path class="st1" d="M79.3,124.8l-22.8-20.2l-0.2,0l7.7,24.7l-8.9,2.7L43.7,94.2L54.2,91l22.7,20.1l0.2,0l-7.7-24.7l8.9-2.7
		l11.5,37.9L79.3,124.8z"/>
	<path class="st1" d="M97.6,119.3L86.1,81.4l25.5-7.7l2.3,7.7l-16.7,5.1l2.2,7.2l15.8-4.8l2.2,7.3l-15.8,4.8l2.4,7.9l17.6-5.3
		l2.4,7.8L97.6,119.3z"/>
	<path class="st1" d="M158.7,92c-0.2,2.1-0.8,4-1.8,5.8c-1,1.8-2.4,3.3-4.2,4.7c-1.8,1.4-3.9,2.4-6.4,3.2c-2.5,0.8-4.9,1.1-7.1,0.9
		c-2.2-0.1-4.2-0.7-6-1.6c-1.8-0.9-3.4-2.2-4.7-3.8c-1.3-1.6-2.3-3.6-3-5.9l-7.2-23.6l9.1-2.8l6.9,22.9c0.3,1,0.7,2,1.3,2.8
		c0.5,0.8,1.2,1.6,2,2.1c0.8,0.6,1.7,0.9,2.7,1.1c1,0.2,2.2,0,3.5-0.4c1.3-0.4,2.3-0.9,3.1-1.6c0.8-0.7,1.3-1.5,1.7-2.4
		c0.3-0.9,0.5-1.9,0.5-2.9c0-1-0.2-2-0.5-3.1l-6.9-22.9l9.2-2.8l7.2,23.6C158.6,87.7,158.9,89.9,158.7,92z"/>
</g>
</svg>
